<?xml version="1.0" encoding="UTF-8"?>
<svg id="Layer_1" xmlns="http://www.w3.org/2000/svg" version="1.1" viewBox="0 0 2193.52 500">
  <!-- Generator: Adobe Illustrator 29.6.1, SVG Export Plug-In . SVG Version: 2.1.1 Build 9)  -->
  <path d="M1698.56,315.09l46.95-128.01h-200.89l-64.18,174.99c-22.47,61.27,22.88,126.2,88.14,126.2h451.25l45.81-125.85h-334.02c-24.47,0-41.48-24.35-33.05-47.33h0ZM759.36,11.73H173.7l-45.81,125.86h585.67l45.8-125.86ZM695.54,187.07H109.88l-45.81,125.86h585.67l45.8-125.86ZM1418.76,11.73c-60.84,0-115.19,38.05-136,95.23l-74.96,205.97-123.33-235.37C1059.49,29.88,1010.11,0,956.28,0h-1.95c-60.85,0-115.2,38.05-136,95.23l-79.45,218.29c-10.69,29.36-38.59,48.9-69.84,48.9H45.81L0,488.27h774.82c60.84,0,115.19-38.05,136-95.23l74.96-205.96,123.34,235.37c24.98,47.68,74.36,77.55,128.19,77.55h1.94c60.84,0,115.19-38.05,136-95.23l79.45-218.29c10.69-29.36,38.59-48.9,69.84-48.9h623.17l45.81-125.85h-774.76Z"/>
</svg>