<?xml version="1.0" encoding="UTF-8"?>
<svg id="Warstwa_1" xmlns="http://www.w3.org/2000/svg" version="1.1" viewBox="0 0 1920 578.6">
  <!-- Generator: Adobe Illustrator 29.3.1, SVG Export Plug-In . SVG Version: 2.1.0 Build 151)  -->
  <polygon points="979.4 175.5 954.8 125.4 929.3 176.3 955.7 225.6 979.4 175.5"/>
  <g>
    <path d="M817.3,494.5c-20-1.9-28.3,12.9-28.3,12.9l-25.9,50.3h26.8v-9.9h23.1v9.9h24.2s-28-45.4-27.6-51c.4-5.6,7.7-12.2,7.7-12.2ZM792.4,535.9l7.5-15.6,8.5,15.6h-15.9Z"/>
    <path d="M701.4,531c8.2,0,7.6-12,7.6-12,0-16.1-18.6-16.1-18.6-16.1h-16.6l3-10.6-23.7,16.9v49h36.9c12.1,0,19-5.8,19-15.5s-7.6-11.8-7.6-11.8ZM688.1,545.5h-14.3v-9.6h8.8c5.1,0,10.5,1.7,10.5,5.6s-5.1,3.9-5.1,3.9ZM688.1,525.1h-14.3v-9.6h8.8c5.1,0,10.5,1.7,10.5,5.6s-5.1,3.9-5.1,3.9Z"/>
    <path d="M428.2,338.6c0,20.3,3,75.5,3,75.5-62,69.9-123.6,86.8-123.6,86.8,77.7-72.1,50.7-224.6,50.7-224.6l-101.4,87.9-68-71.7c-3.8-52.6,8.3-94.6,8.3-94.6l64.6,69.9,255.4-223.8c-104.8,42.1-194.4,34-224.2,28.4-29.9-5.6-72.7-6.8-88.5-.6-15.8,6.2-50.1,16.9-50.1,16.9,7.9-13.5,60.8-49,60.8-49-45.6,19.7-65.9,11.3-100.3,24.8C21.4,126.2,15.8,179.7,15.8,179.7c0,0,.6,224.2-.6,243.9-1.1,19.7-15.2,67.6-15.2,67.6l100.3-81.7s.6-81.1-.6-111.5c-1.1-30.4-8.5-83.8-8.5-83.8,28.2-45.1,123.6-89.4,123.6-89.4-57.1,52.6-51.1,139.7-51.1,139.7l7.1,171.6L8.3,578.6c195.3-37.6,279.1-19.9,363.6-16.9,122.1-30,135.6-125.4,135.6-125.4,0,0,1.5-247.9,1.5-257.7s15-46.2,15-46.2l-94.3,81.9s-1.5,104-1.5,124.3Z"/>
    <path d="M820.3,277.4s-56.9-106.3,14.6-209.6l-82.8,4.3-51.8,76.6-49.6-76.1-69.7-4.9s37.6,92.4,0,209.6h87.1s-21.4-36.8-18-107.8l49.6,71,49.6-72.1s6.2,61.2-16.3,108.9h87.3Z"/>
    <path d="M970.1,290.1c113.8-18.8,124.3-145,75.9-191.2-48.5-46.2-119.1-21.4-119.1-21.4,6.8-13.5,42.8-27,42.8-27-23.3-.8-81.5,2.3-118.7,61.2-41.3,74,5.3,197.2,119.1,178.4ZM945.4,103.3c68.6-8.4,95.4,66.6,70.2,117.4-22.7,40.4-64.6,50.8-78.9,50.3,0,0,35.3-23.8,39.4-33.1,0,0-41.6,16.6-71.2-15-29.6-31.7-28.7-111.2,40.5-119.6Z"/>
    <path d="M1070.4,277.4h136.3s59.2-3,60.8-59.3c0-36.1-31-47.2-31-47.2,0,0,24.8-17.6,21.4-57-3.4-39.4-54.6-49.6-83.9-49.6h-100.7s68.1,106.9-2.9,213.1ZM1178.6,105c9,.8,29.3,2.3,30.4,24.4,1.1,22.2-19.9,24.4-19.9,24.4h-35.3c1.9-15-5.6-48.8-5.6-48.8,0,0,21.4-.8,30.4,0ZM1155.3,191s21.8.4,30.8,0c9-.4,33.4,2.6,29.3,25.5-4.1,22.9-28.9,21.4-28.9,21.4h-41.3c7.9-11.3,10.1-46.9,10.1-46.9Z"/>
    <path d="M1364.5,277.4c-34.6-115.7-3.8-211.1-3.8-211.1h-84.5c31.2,150.2,0,211.1,0,211.1h88.3Z"/>
    <path d="M1542,277.4c20.8-25.2,19.2-62.9,19.2-62.9-24.2,19-63.7,19.9-63.7,19.9h-41.7s-.6-14.1-.6-53.5,26.5-80,26.5-80c-23.1,5.1-53.5,28.4-53.5,28.4,10.1-35.8,69.3-78.8,69.3-78.8-22.5,8.2-113.2,15.9-113.2,15.9,28.7,128.3-3.9,211.1-3.9,211.1h161.7Z"/>
    <path d="M1920,0c-55.8,59.2-134.1,83.4-149.3,63.7-15.2-19.7,10.7-34.4,10.7-34.4-70.4,4.5-160.6,51.8-160.6,51.8l39.4-41.1-85.6,26.3c28.7,109.1-4.5,215.4-4.5,215.4h163.9c64.2-32.7,69.3-82.8,69.3-82.8,0,0-14.1,5.6-42.3,24.2-28.2,18.6-89.6,18-104.2,9.6-14.6-8.5-10.1-43.9-10.1-43.9h63.1l37.5-45.6c-14.9,9.6-78.6,8.5-90.4,7.3-11.8-1.1-10.1-21.4-7.9-32.1,16.9-22,67-22.5,90.7-19.7,23.7,2.8,19.2,40,19.2,40C1875.5,90.1,1920,0,1920,0Z"/>
    <path d="M667.8,438.9h-25.5c-15.8-97.3,11.3-131.8,11.3-131.8h-70.2c4.1,12,12.4,49.2,10.9,90.1-1.5,40.9-30.8,94.3-30.8,94.3,20.3-7.1,71-38.7,71-38.7l-30,33.4,94.6-12.4c20.7-16.5,19.2-56.3,19.2-56.3-22.9,22.9-50.3,21.4-50.3,21.4Z"/>
    <path d="M794.7,438.5l-5.6-33.8s41.3-4.1,63.5,9l-.8-45.4s-27,11.3-61.6,8.6c0,0-1.5-31.2,3-33.8l72.5,1.9,22.5-37.9h-150.6s29.7,79.2,0,164.9h148.8s-24.5-27.8-25.6-35.7c0,0-57.1,3.4-66.1,2.3Z"/>
    <path d="M1034.7,478.3s22.5-38.7,18.4-102.2h-61.6l-21.6,37.2h40s-6.8,22.9-29.7,25.9c-22.9,3-53.7-13.1-52.6-47.3,1.1-34.2,30.4-53,65.4-50,34.9,3,58.2,13.1,58.2,13.1l-16.5-48.1h-71.7s-68.6-2.6-76.5,81.1c0,0-6.8,77,66,91.3h34.6l-10.9,15,58.6-16.2Z"/>
    <path d="M1208.6,352.9c-.8-30-15.4-45.8-15.4-45.8h-122.8s29.7,84.9,0,164.9h118.3s17.7-18.4,19.9-42.1c0,0-30,10.5-63.5,9.4l-21-1.1c3.4-14.3,2.3-32.3,2.3-32.3,22.9-1.5,54.5,5.3,54.5,5.3v-39.4c-12,5.3-54.5,4.9-54.5,4.9,0-10.1-3.8-33.8-3.8-33.8h40.6c27,0,45.4,10.1,45.4,10.1Z"/>
    <path d="M1279.4,389.5s28.2,20.3,51.3,82.4h66.5s-23.7-89.4,0-164.9h-71.5s18,40.9,13,82.4c0,0-36.1-39.6-55.8-82.4h-59.7s27.6,72.3,0,164.9h66.5s-12.4-38.9-10.1-82.4Z"/>
    <path d="M1473,307h-59.2s16.6,85,0,164.9h85.8s78.7-2.9,80.7-79.8c2-76.9-80-85.1-107.3-85.1ZM1470.7,433.5l-2-86.2s61.7-6.2,61.7,42.2-59.7,44-59.7,44Z"/>
    <path d="M1716.8,358.5l13.3,1.8s41.5-48.6,56.5-82.9l-62,33.4s-132.6-6.4-145.7-3.8c0,0,28.2,51.8,26.3,82.4,0,0,20.7,14.8,43.2,19,22.5,4.1,42.1,16.9,42.1,16.9h-7.7s.6,20.3-30.2,18c-30.8-2.3-50.7-25.9-50.7-25.9,0,0-9.8,30.8-31.7,54.5l156.4,10.5,56.7-41.7s-32.3,3.4-48.1,10.9c0,0,23.3-50.7-31.5-71.7-42.4-14.6-61.2-12-61.2-30s56-13.9,74.4,8.6Z"/>
    <path d="M937.7,530.6l-25.1-27.5h-17c0-.1,0,47,0,47l-2.8,7.5h21.5v-26.6l22.1,26.6h20.3v-43s1-13,5.8-17.5l-24.8,5.2v28.2Z"/>
    <path d="M1017.2,532.1c0,22.4,22.8,25.5,22.8,25.5h37.2v-30.2l-25.2,2.7c7.6,4.2,8.9,13.4,1.7,13.4-10.7,0-17-3.4-17-13.1s11.1-14.8,19.9-14.8,20.8,5.5,20.8,5.5l9.3-24.5c-8.9,2.4-31.5,4.6-44.5,4.6s-24.9,8.5-24.9,30.8Z"/>
    <path d="M1379.2,494.5c-20-1.9-28.3,12.9-28.3,12.9l-25.9,50.3h26.8v-9.9h23.1v9.9h24.2s-28-45.4-27.6-51c.4-5.6,7.7-12.2,7.7-12.2ZM1354.3,535.9l7.5-15.6,8.5,15.6h-15.9Z"/>
    <path d="M1270.9,519c0-16.1-18.6-16.1-18.6-16.1h-16.6l3-10.6-23.7,16.9v49h36.9c12.1,0,19-5.8,19-15.5s-7.6-11.8-7.6-11.8c8.2,0,7.6-12,7.6-12ZM1250,545.5h-14.3v-9.6h8.8c5.1,0,10.5,1.7,10.5,5.6s-5.1,3.9-5.1,3.9ZM1250,525.1h-14.3v-9.6h8.8c5.1,0,10.5,1.7,10.5,5.6s-5.1,3.9-5.1,3.9Z"/>
    <path d="M1499.6,530.6l-25.1-27.5h-17c0-.1,0,47,0,47l-2.8,7.5h21.5v-26.6l22.1,26.6h20.3v-43s1-13,5.8-17.5l-24.8,5.2v28.2Z"/>
    <path d="M1579.1,532.1c0,22.4,22.8,25.5,22.8,25.5h37.2v-30.2l-25.2,2.7c7.6,4.2,8.9,13.4,1.7,13.4-10.7,0-17-3.4-17-13.1s11.1-14.8,19.9-14.8,20.8,5.5,20.8,5.5l9.3-24.5c-8.9,2.4-31.5,4.6-44.5,4.6s-24.9,8.5-24.9,30.8Z"/>
  </g>
</svg>